<?xml version="1.0" encoding="UTF-8" standalone="no"?>
<!DOCTYPE svg PUBLIC "-//W3C//DTD SVG 1.1//EN"
 "http://www.w3.org/Graphics/SVG/1.1/DTD/svg11.dtd">
<!-- Generated by graphviz version 12.1.1 (20240910.0053)
 -->
<!-- Title: INFRA Pages: 1 -->
<svg width="483pt" height="404pt"
 viewBox="0.00 0.00 482.80 404.00" xmlns="http://www.w3.org/2000/svg" xmlns:xlink="http://www.w3.org/1999/xlink">
<g id="graph0" class="graph" transform="scale(1 1) rotate(0) translate(4 400)">
<title>INFRA</title>
<polygon fill="white" stroke="none" points="-4,4 -4,-400 478.8,-400 478.8,4 -4,4"/>
<!-- PostgreSQL Database -->
<g id="node1" class="node">
<title>PostgreSQL Database</title>
<path fill="#ffcfb3" stroke="black" stroke-width="2" d="M377.75,-65.45C377.75,-69.07 338.6,-72 290.4,-72 242.2,-72 203.05,-69.07 203.05,-65.45 203.05,-65.45 203.05,-6.55 203.05,-6.55 203.05,-2.93 242.2,0 290.4,0 338.6,0 377.75,-2.93 377.75,-6.55 377.75,-6.55 377.75,-65.45 377.75,-65.45"/>
<path fill="none" stroke="black" stroke-width="2" d="M377.75,-65.45C377.75,-61.84 338.6,-58.91 290.4,-58.91 242.2,-58.91 203.05,-61.84 203.05,-65.45"/>
<text text-anchor="middle" x="290.4" y="-40.2" font-family="Arial" font-size="14.00">PostgreSQL Database</text>
<text text-anchor="middle" x="290.4" y="-23.4" font-family="Arial" font-size="14.00">(AWS::RDS::DBInstance)</text>
</g>
<!-- authUsers Table -->
<g id="node2" class="node">
<title>authUsers Table</title>
<path fill="#ffcfb3" stroke="black" stroke-width="2" d="M368.8,-173.45C368.8,-177.07 333.66,-180 290.4,-180 247.14,-180 212,-177.07 212,-173.45 212,-173.45 212,-114.55 212,-114.55 212,-110.93 247.14,-108 290.4,-108 333.66,-108 368.8,-110.93 368.8,-114.55 368.8,-114.55 368.8,-173.45 368.8,-173.45"/>
<path fill="none" stroke="black" stroke-width="2" d="M368.8,-173.45C368.8,-169.84 333.66,-166.91 290.4,-166.91 247.14,-166.91 212,-169.84 212,-173.45"/>
<text text-anchor="middle" x="290.4" y="-148.2" font-family="Arial" font-size="14.00">authUsers Table</text>
<text text-anchor="middle" x="290.4" y="-131.4" font-family="Arial" font-size="14.00">(AWS::RDS::DBTable)</text>
</g>
<!-- authUsers Table&#45;&gt;PostgreSQL Database -->
<g id="edge1" class="edge">
<title>authUsers Table&#45;&gt;PostgreSQL Database</title>
<path fill="none" stroke="black" d="M290.4,-107.7C290.4,-99.93 290.4,-91.57 290.4,-83.43"/>
<polygon fill="black" stroke="black" points="293.9,-83.66 290.4,-73.66 286.9,-83.66 293.9,-83.66"/>
</g>
<!-- users Table -->
<g id="node3" class="node">
<title>users Table</title>
<path fill="#ffcfb3" stroke="black" stroke-width="2" d="M387.8,-281.45C387.8,-285.07 352.66,-288 309.4,-288 266.14,-288 231,-285.07 231,-281.45 231,-281.45 231,-222.55 231,-222.55 231,-218.93 266.14,-216 309.4,-216 352.66,-216 387.8,-218.93 387.8,-222.55 387.8,-222.55 387.8,-281.45 387.8,-281.45"/>
<path fill="none" stroke="black" stroke-width="2" d="M387.8,-281.45C387.8,-277.84 352.66,-274.91 309.4,-274.91 266.14,-274.91 231,-277.84 231,-281.45"/>
<text text-anchor="middle" x="309.4" y="-256.2" font-family="Arial" font-size="14.00">users Table</text>
<text text-anchor="middle" x="309.4" y="-239.4" font-family="Arial" font-size="14.00">(AWS::RDS::DBTable)</text>
</g>
<!-- users Table&#45;&gt;PostgreSQL Database -->
<g id="edge2" class="edge">
<title>users Table&#45;&gt;PostgreSQL Database</title>
<path fill="none" stroke="black" d="M353.36,-215.56C363.12,-205.23 372.12,-193.15 377.4,-180 389.33,-150.31 391.12,-136.91 377.4,-108 372.33,-97.32 364.79,-87.72 356.22,-79.28"/>
<polygon fill="black" stroke="black" points="358.61,-76.72 348.86,-72.57 353.89,-81.9 358.61,-76.72"/>
</g>
<!-- users Table&#45;&gt;authUsers Table -->
<g id="edge3" class="edge">
<title>users Table&#45;&gt;authUsers Table</title>
<path fill="none" stroke="black" d="M303.07,-215.7C301.68,-207.93 300.18,-199.57 298.72,-191.43"/>
<polygon fill="black" stroke="black" points="302.18,-190.86 296.97,-181.63 295.29,-192.09 302.18,-190.86"/>
</g>
<!-- weeks Table -->
<g id="node4" class="node">
<title>weeks Table</title>
<path fill="#ffcfb3" stroke="black" stroke-width="2" d="M156.8,-173.45C156.8,-177.07 121.66,-180 78.4,-180 35.14,-180 0,-177.07 0,-173.45 0,-173.45 0,-114.55 0,-114.55 0,-110.93 35.14,-108 78.4,-108 121.66,-108 156.8,-110.93 156.8,-114.55 156.8,-114.55 156.8,-173.45 156.8,-173.45"/>
<path fill="none" stroke="black" stroke-width="2" d="M156.8,-173.45C156.8,-169.84 121.66,-166.91 78.4,-166.91 35.14,-166.91 0,-169.84 0,-173.45"/>
<text text-anchor="middle" x="78.4" y="-148.2" font-family="Arial" font-size="14.00">weeks Table</text>
<text text-anchor="middle" x="78.4" y="-131.4" font-family="Arial" font-size="14.00">(AWS::RDS::DBTable)</text>
</g>
<!-- weeks Table&#45;&gt;PostgreSQL Database -->
<g id="edge4" class="edge">
<title>weeks Table&#45;&gt;PostgreSQL Database</title>
<path fill="none" stroke="black" d="M145.19,-109.61C166.55,-98.92 190.39,-87 212.48,-75.96"/>
<polygon fill="black" stroke="black" points="213.76,-79.23 221.14,-71.63 210.63,-72.97 213.76,-79.23"/>
</g>
<!-- submissions Table -->
<g id="node5" class="node">
<title>submissions Table</title>
<path fill="#ffcfb3" stroke="black" stroke-width="2" d="M262.8,-389.45C262.8,-393.07 227.66,-396 184.4,-396 141.14,-396 106,-393.07 106,-389.45 106,-389.45 106,-330.55 106,-330.55 106,-326.93 141.14,-324 184.4,-324 227.66,-324 262.8,-326.93 262.8,-330.55 262.8,-330.55 262.8,-389.45 262.8,-389.45"/>
<path fill="none" stroke="black" stroke-width="2" d="M262.8,-389.45C262.8,-385.84 227.66,-382.91 184.4,-382.91 141.14,-382.91 106,-385.84 106,-389.45"/>
<text text-anchor="middle" x="184.4" y="-364.2" font-family="Arial" font-size="14.00">submissions Table</text>
<text text-anchor="middle" x="184.4" y="-347.4" font-family="Arial" font-size="14.00">(AWS::RDS::DBTable)</text>
</g>
<!-- submissions Table&#45;&gt;PostgreSQL Database -->
<g id="edge5" class="edge">
<title>submissions Table&#45;&gt;PostgreSQL Database</title>
<path fill="none" stroke="black" d="M178.75,-323.78C172.37,-272.97 167.11,-177.54 203.4,-108 208.99,-97.28 216.98,-87.59 225.88,-79.06"/>
<polygon fill="black" stroke="black" points="228.02,-81.84 233.13,-72.56 223.35,-76.62 228.02,-81.84"/>
</g>
<!-- submissions Table&#45;&gt;users Table -->
<g id="edge6" class="edge">
<title>submissions Table&#45;&gt;users Table</title>
<path fill="none" stroke="black" d="M226.02,-323.7C236.67,-314.67 248.23,-304.87 259.26,-295.52"/>
<polygon fill="black" stroke="black" points="261.44,-298.26 266.8,-289.12 256.91,-292.92 261.44,-298.26"/>
</g>
<!-- submissions Table&#45;&gt;weeks Table -->
<g id="edge7" class="edge">
<title>submissions Table&#45;&gt;weeks Table</title>
<path fill="none" stroke="black" d="M166.9,-323.66C148.87,-287.26 120.7,-230.39 101,-190.62"/>
<polygon fill="black" stroke="black" points="104.18,-189.15 96.6,-181.75 97.9,-192.26 104.18,-189.15"/>
</g>
<!-- reminderLogs Table -->
<g id="node6" class="node">
<title>reminderLogs Table</title>
<path fill="#ffcfb3" stroke="black" stroke-width="2" d="M474.8,-389.45C474.8,-393.07 439.66,-396 396.4,-396 353.14,-396 318,-393.07 318,-389.45 318,-389.45 318,-330.55 318,-330.55 318,-326.93 353.14,-324 396.4,-324 439.66,-324 474.8,-326.93 474.8,-330.55 474.8,-330.55 474.8,-389.45 474.8,-389.45"/>
<path fill="none" stroke="black" stroke-width="2" d="M474.8,-389.45C474.8,-385.84 439.66,-382.91 396.4,-382.91 353.14,-382.91 318,-385.84 318,-389.45"/>
<text text-anchor="middle" x="396.4" y="-364.2" font-family="Arial" font-size="14.00">reminderLogs Table</text>
<text text-anchor="middle" x="396.4" y="-347.4" font-family="Arial" font-size="14.00">(AWS::RDS::DBTable)</text>
</g>
<!-- reminderLogs Table&#45;&gt;PostgreSQL Database -->
<g id="edge8" class="edge">
<title>reminderLogs Table&#45;&gt;PostgreSQL Database</title>
<path fill="none" stroke="black" d="M406.27,-323.64C418.41,-272.64 433.23,-177 396.4,-108 390.17,-96.32 381.07,-86.23 370.78,-77.61"/>
<polygon fill="black" stroke="black" points="373.13,-75.01 363.09,-71.65 368.85,-80.54 373.13,-75.01"/>
</g>
<!-- reminderLogs Table&#45;&gt;users Table -->
<g id="edge9" class="edge">
<title>reminderLogs Table&#45;&gt;users Table</title>
<path fill="none" stroke="black" d="M367.43,-323.7C360.39,-315.12 352.77,-305.84 345.44,-296.91"/>
<polygon fill="black" stroke="black" points="348.25,-294.82 339.2,-289.31 342.84,-299.26 348.25,-294.82"/>
</g>
</g>
</svg>
